<mxfile host="drawio-plugin" modified="2023-05-06T19:29:09.746Z" agent="5.0 (Macintosh; Intel Mac OS X 10_15_7) AppleWebKit/537.36 (KHTML, like Gecko) Chrome/104.0.5112.102 Safari/537.36" version="20.5.3" etag="qEX07kH4UKvgd31FI5b6" type="embed"><diagram id="tU3mTcSXYGT8jz4W1jHq" name="Page-1"><mxGraphModel dx="936" dy="633" grid="1" gridSize="10" guides="1" tooltips="1" connect="1" arrows="1" fold="1" page="1" pageScale="1" pageWidth="850" pageHeight="1100" math="0" shadow="0"><root><mxCell id="0"/><mxCell id="1" parent="0"/><mxCell id="2" value="User&lt;br&gt;" style="shape=umlLifeline;participant=umlActor;perimeter=lifelinePerimeter;whiteSpace=wrap;html=1;container=1;collapsible=0;recursiveResize=0;verticalAlign=top;spacingTop=36;outlineConnect=0;fillColor=#ffe6cc;strokeColor=#d79b00;" vertex="1" parent="1"><mxGeometry x="50" y="30" width="20" height="530" as="geometry"/></mxCell><mxCell id="19" value="" style="html=1;points=[];perimeter=orthogonalPerimeter;fillColor=#ffe6cc;strokeColor=#d79b00;" vertex="1" parent="2"><mxGeometry x="5" y="160" width="10" height="350" as="geometry"/></mxCell><mxCell id="3" value="Frontend" style="shape=umlLifeline;perimeter=lifelinePerimeter;whiteSpace=wrap;html=1;container=1;collapsible=0;recursiveResize=0;outlineConnect=0;fillColor=#ffe6cc;strokeColor=#d79b00;" vertex="1" parent="1"><mxGeometry x="170" y="30" width="100" height="530" as="geometry"/></mxCell><mxCell id="6" value="" style="html=1;points=[];perimeter=orthogonalPerimeter;fillColor=#ffe6cc;strokeColor=#d79b00;" vertex="1" parent="3"><mxGeometry x="40" y="70" width="10" height="60" as="geometry"/></mxCell><mxCell id="27" value="" style="html=1;points=[];perimeter=orthogonalPerimeter;fillColor=#ffe6cc;strokeColor=#d79b00;" vertex="1" parent="3"><mxGeometry x="45" y="280" width="10" height="180" as="geometry"/></mxCell><mxCell id="41" value="" style="html=1;points=[];perimeter=orthogonalPerimeter;fillColor=#ffe6cc;strokeColor=#d79b00;" vertex="1" parent="3"><mxGeometry x="45" y="470" width="10" height="40" as="geometry"/></mxCell><mxCell id="42" value="Uložení JWT&lt;br&gt;do úložiště" style="edgeStyle=orthogonalEdgeStyle;html=1;align=left;spacingLeft=2;endArrow=block;rounded=0;entryX=1;entryY=0;exitX=0.983;exitY=0.946;exitDx=0;exitDy=0;exitPerimeter=0;" edge="1" target="41" parent="3" source="27"><mxGeometry relative="1" as="geometry"><mxPoint x="60" y="450" as="sourcePoint"/><Array as="points"><mxPoint x="80" y="450"/><mxPoint x="80" y="470"/></Array></mxGeometry></mxCell><mxCell id="4" value="Microsoft SSO" style="shape=umlLifeline;perimeter=lifelinePerimeter;whiteSpace=wrap;html=1;container=1;collapsible=0;recursiveResize=0;outlineConnect=0;fillColor=#ffe6cc;strokeColor=#d79b00;" vertex="1" parent="1"><mxGeometry x="350" y="30" width="100" height="530" as="geometry"/></mxCell><mxCell id="11" value="" style="html=1;points=[];perimeter=orthogonalPerimeter;fillColor=#ffe6cc;strokeColor=#d79b00;" vertex="1" parent="4"><mxGeometry x="45" y="70" width="10" height="60" as="geometry"/></mxCell><mxCell id="14" value="" style="html=1;points=[];perimeter=orthogonalPerimeter;fillColor=#ffe6cc;strokeColor=#d79b00;" vertex="1" parent="4"><mxGeometry x="45" y="160" width="10" height="140" as="geometry"/></mxCell><mxCell id="30" value="Přesměrování s&lt;br&gt;jednorázovým tokenem" style="html=1;verticalAlign=bottom;endArrow=open;dashed=1;endSize=8;rounded=0;" edge="1" parent="4" target="3"><mxGeometry relative="1" as="geometry"><mxPoint x="45" y="290" as="sourcePoint"/><mxPoint x="-35" y="290" as="targetPoint"/></mxGeometry></mxCell><mxCell id="35" value="" style="html=1;points=[];perimeter=orthogonalPerimeter;fillColor=#ffe6cc;strokeColor=#d79b00;" vertex="1" parent="4"><mxGeometry x="45" y="350" width="10" height="60" as="geometry"/></mxCell><mxCell id="5" value="Backend" style="shape=umlLifeline;perimeter=lifelinePerimeter;whiteSpace=wrap;html=1;container=1;collapsible=0;recursiveResize=0;outlineConnect=0;fillColor=#ffe6cc;strokeColor=#d79b00;" vertex="1" parent="1"><mxGeometry x="530" y="30" width="100" height="530" as="geometry"/></mxCell><mxCell id="31" value="" style="html=1;points=[];perimeter=orthogonalPerimeter;fillColor=#ffe6cc;strokeColor=#d79b00;" vertex="1" parent="5"><mxGeometry x="45" y="310" width="10" height="100" as="geometry"/></mxCell><mxCell id="38" value="" style="html=1;points=[];perimeter=orthogonalPerimeter;fillColor=#ffe6cc;strokeColor=#d79b00;" vertex="1" parent="5"><mxGeometry x="45" y="420" width="10" height="30" as="geometry"/></mxCell><mxCell id="39" value="Registrace" style="edgeStyle=orthogonalEdgeStyle;html=1;align=left;spacingLeft=2;endArrow=block;rounded=0;entryX=1;entryY=0;" edge="1" parent="5"><mxGeometry relative="1" as="geometry"><mxPoint x="57" y="406" as="sourcePoint"/><Array as="points"><mxPoint x="80" y="406"/></Array><mxPoint x="55" y="426" as="targetPoint"/></mxGeometry></mxCell><mxCell id="40" value="Předání JWT tokenu" style="html=1;verticalAlign=bottom;endArrow=open;dashed=1;endSize=8;rounded=0;" edge="1" parent="5"><mxGeometry relative="1" as="geometry"><mxPoint x="45" y="436" as="sourcePoint"/><mxPoint x="-310.33333333333326" y="436" as="targetPoint"/></mxGeometry></mxCell><mxCell id="7" value="Výběr Microsoft SSO" style="html=1;verticalAlign=bottom;startArrow=oval;endArrow=block;startSize=8;rounded=0;" edge="1" target="6" parent="1" source="2"><mxGeometry relative="1" as="geometry"><mxPoint x="59.5" y="130" as="sourcePoint"/><Array as="points"><mxPoint x="100" y="110"/></Array></mxGeometry></mxCell><mxCell id="9" value="Zahájit SSO proces" style="html=1;verticalAlign=bottom;endArrow=block;rounded=0;" edge="1" target="4" parent="1" source="6"><mxGeometry relative="1" as="geometry"><mxPoint x="275" y="100" as="sourcePoint"/><Array as="points"><mxPoint x="260" y="110"/></Array></mxGeometry></mxCell><mxCell id="16" value="Zobrazení požadovaných oprávnění" style="html=1;verticalAlign=bottom;endArrow=open;dashed=1;endSize=8;rounded=0;" edge="1" parent="1"><mxGeometry relative="1" as="geometry"><mxPoint x="395" y="247" as="sourcePoint"/><mxPoint x="63" y="247" as="targetPoint"/></mxGeometry></mxCell><mxCell id="13" value="Přesměrovat na Microsoft SSO" style="html=1;verticalAlign=bottom;endArrow=open;dashed=1;endSize=8;exitX=0;exitY=0.95;rounded=0;" edge="1" source="11" parent="1" target="3"><mxGeometry relative="1" as="geometry"><mxPoint x="210" y="160" as="targetPoint"/><Array as="points"/></mxGeometry></mxCell><mxCell id="20" value="Vyplnit přihlašovací údaje univerzity" style="html=1;verticalAlign=bottom;endArrow=block;rounded=0;" edge="1" parent="1" source="19"><mxGeometry width="80" relative="1" as="geometry"><mxPoint x="66.5" y="208.72000000000003" as="sourcePoint"/><mxPoint x="397" y="208.72000000000014" as="targetPoint"/></mxGeometry></mxCell><mxCell id="21" value="Potvrzení požadovaných oprávnění" style="html=1;verticalAlign=bottom;endArrow=block;rounded=0;" edge="1" parent="1" source="19"><mxGeometry width="80" relative="1" as="geometry"><mxPoint x="70" y="286" as="sourcePoint"/><mxPoint x="400" y="286" as="targetPoint"/><Array as="points"><mxPoint x="280" y="286"/></Array></mxGeometry></mxCell><mxCell id="34" value="Předání jednorázového tokenu" style="html=1;verticalAlign=bottom;endArrow=block;rounded=0;" edge="1" parent="1"><mxGeometry width="80" relative="1" as="geometry"><mxPoint x="225" y="360" as="sourcePoint"/><mxPoint x="575" y="360" as="targetPoint"/></mxGeometry></mxCell><mxCell id="36" value="Získání uživatelský údajů" style="html=1;verticalAlign=bottom;endArrow=block;entryX=1;entryY=0;rounded=0;" edge="1" parent="1"><mxGeometry relative="1" as="geometry"><mxPoint x="575" y="392" as="sourcePoint"/><mxPoint x="405" y="392" as="targetPoint"/></mxGeometry></mxCell><mxCell id="37" value="Poskytnutí údajů" style="html=1;verticalAlign=bottom;endArrow=open;dashed=1;endSize=8;exitX=1;exitY=0.95;rounded=0;entryX=0.5;entryY=0.77;entryDx=0;entryDy=0;entryPerimeter=0;" edge="1" parent="1"><mxGeometry relative="1" as="geometry"><mxPoint x="580" y="420" as="targetPoint"/><mxPoint x="405" y="420" as="sourcePoint"/></mxGeometry></mxCell><mxCell id="48" value="Přihlášení" style="html=1;verticalAlign=bottom;endArrow=open;dashed=1;endSize=8;rounded=0;" edge="1" parent="1" target="2"><mxGeometry relative="1" as="geometry"><mxPoint x="220" y="520" as="sourcePoint"/><mxPoint x="140" y="520" as="targetPoint"/></mxGeometry></mxCell></root></mxGraphModel></diagram></mxfile>